<svg width="24" height="25" viewBox="0 0 24 25" fill="none" xmlns="http://www.w3.org/2000/svg">
<path d="M12 16.8375C14.2091 16.8375 16 15.0467 16 12.8375C16 10.6284 14.2091 8.83754 12 8.83754C9.79086 8.83754 8 10.6284 8 12.8375C8 15.0467 9.79086 16.8375 12 16.8375Z" stroke="white" stroke-linecap="round" stroke-linejoin="round"/>
<path d="M16 8.83753V13.8375C16 14.6332 16.3161 15.3962 16.8787 15.9589C17.4413 16.5215 18.2044 16.8375 19 16.8375C19.7957 16.8375 20.5587 16.5215 21.1213 15.9589C21.6839 15.3962 22 14.6332 22 13.8375V12.8375C22 10.5848 21.2394 8.39813 19.8414 6.6317C18.4434 4.86527 16.49 3.62261 14.2975 3.10504C12.1051 2.58748 9.80215 2.82534 7.76178 3.78008C5.72141 4.73483 4.06318 6.35052 3.05574 8.3654C2.0483 10.3803 1.75069 12.6763 2.21111 14.8814C2.67154 17.0866 3.86303 19.0716 5.59254 20.515C7.32205 21.9585 9.48825 22.7756 11.7402 22.8342C13.9921 22.8927 16.1979 22.1891 18 20.8375" stroke="white" stroke-linecap="round" stroke-linejoin="round"/>
</svg>
