<svg width="24" height="25" viewBox="0 0 24 25" fill="none" xmlns="http://www.w3.org/2000/svg">
<path d="M22 17.7575V20.7575C22.0011 21.036 21.9441 21.3117 21.8325 21.5669C21.7209 21.8221 21.5573 22.0511 21.3521 22.2394C21.1468 22.4277 20.9046 22.571 20.6407 22.6603C20.3769 22.7495 20.0974 22.7826 19.82 22.7575C16.7428 22.4232 13.787 21.3717 11.19 19.6875C8.77382 18.1522 6.72533 16.1037 5.18999 13.6875C3.49997 11.0787 2.44824 8.10854 2.11999 5.01754C2.095 4.74101 2.12787 4.46231 2.21649 4.19917C2.30512 3.93603 2.44756 3.69423 2.63476 3.48917C2.82196 3.2841 3.0498 3.12025 3.30379 3.00807C3.55777 2.89588 3.83233 2.83781 4.10999 2.83755H7.10999C7.5953 2.83277 8.06579 3.00462 8.43376 3.32108C8.80173 3.63753 9.04207 4.07699 9.10999 4.55755C9.23662 5.51761 9.47144 6.46027 9.80999 7.36755C9.94454 7.72547 9.97366 8.11446 9.8939 8.48843C9.81415 8.86239 9.62886 9.20566 9.35999 9.47755L8.08999 10.7475C9.51355 13.2511 11.5864 15.324 14.09 16.7475L15.36 15.4775C15.6319 15.2087 15.9751 15.0234 16.3491 14.9436C16.7231 14.8639 17.1121 14.893 17.47 15.0275C18.3773 15.3661 19.3199 15.6009 20.28 15.7275C20.7658 15.7961 21.2094 16.0408 21.5265 16.415C21.8437 16.7893 22.0122 17.2671 22 17.7575Z" stroke="white" stroke-linecap="round" stroke-linejoin="round"/>
<path d="M14.05 2.83754C16.0882 3.05231 17.9922 3.95634 19.4469 5.40012C20.9015 6.8439 21.8199 8.74095 22.05 10.7775" stroke="white" stroke-linecap="round" stroke-linejoin="round"/>
<path d="M14.05 6.83754C15.0335 7.03148 15.936 7.51657 16.6404 8.22985C17.3447 8.94313 17.8184 9.85167 18 10.8375" stroke="white" stroke-linecap="round" stroke-linejoin="round"/>
</svg>
