<svg width="52" height="52" viewBox="0 0 52 52" fill="none" xmlns="http://www.w3.org/2000/svg">
<path d="M24.6634 8.28483L16.7194 16.2277H16.7167C16.6614 16.283 16.6219 16.3459 16.5986 16.4093C16.5753 16.4759 16.5671 16.5512 16.5753 16.6298C16.5834 16.7105 16.6061 16.7799 16.6419 16.8395C16.6771 16.8964 16.7297 16.9489 16.798 16.9934C17.673 17.5661 18.585 18.2407 19.5121 19.0047C20.4126 19.7481 21.3088 20.5598 22.1774 21.4278C23.046 22.2964 23.8571 23.1926 24.6 24.0926C25.3651 25.0208 26.0391 25.9333 26.6119 26.8073C26.6568 26.8766 26.7089 26.9281 26.7663 26.9639C26.8248 26.9986 26.8952 27.0224 26.9749 27.0305C27.0551 27.0376 27.1293 27.0305 27.1954 27.0072C27.2577 26.985 27.319 26.9449 27.3775 26.8864L35.3209 18.9424H35.3237C35.3789 18.8871 35.419 18.8259 35.4418 18.7609C35.4651 18.6942 35.4732 18.6205 35.4651 18.5403C35.457 18.4596 35.4342 18.3903 35.399 18.3323C35.3638 18.2738 35.3112 18.2212 35.2424 18.1768C34.3678 17.604 33.4559 16.9294 32.5288 16.1654C31.6277 15.422 30.7321 14.6103 29.8635 13.7423C28.9944 12.8737 28.1832 11.9775 27.4403 11.0775C26.6758 10.1493 26.0017 9.23794 25.429 8.36286C25.384 8.29459 25.332 8.24203 25.274 8.20627C25.2155 8.17159 25.1451 8.14937 25.0654 8.1407C24.9858 8.13257 24.911 8.1407 24.8449 8.16454C24.7799 8.18676 24.7187 8.22686 24.6634 8.28212V8.28483ZM15.7793 15.2887L15.7782 15.2871L23.7217 7.34311L23.7233 7.34473C23.9232 7.14479 24.1519 6.99903 24.4028 6.91071C24.6525 6.82185 24.9208 6.78988 25.2009 6.81914C25.4805 6.84786 25.7379 6.93401 25.966 7.07272C26.1946 7.21144 26.3892 7.4 26.542 7.63462C27.0995 8.4864 27.7443 9.35985 28.465 10.2339C29.1602 11.0775 29.9426 11.939 30.8047 12.8C31.6673 13.6632 32.5288 14.4451 33.3714 15.1403C34.2454 15.8615 35.1194 16.5068 35.9706 17.0627C36.2047 17.2166 36.3933 17.4111 36.5325 17.6398C36.6718 17.8674 36.7574 18.1253 36.7866 18.4043C36.8154 18.6845 36.7839 18.9532 36.6956 19.203C36.6062 19.4544 36.4604 19.6831 36.261 19.883L36.2627 19.8841L28.3187 27.827C28.1214 28.0254 27.8922 28.1695 27.6376 28.2594C27.3883 28.3483 27.1196 28.3803 26.84 28.351C26.5598 28.3223 26.303 28.2361 26.0749 28.0974C25.8457 27.9587 25.6517 27.7701 25.4984 27.5355C24.9408 26.6837 24.2966 25.8103 23.5754 24.9363C22.8807 24.0943 22.0977 23.2311 21.2357 22.3701C20.3736 21.507 19.5121 20.7251 18.6695 20.0299C17.7955 19.3098 16.9215 18.665 16.0697 18.1074C15.8356 17.9535 15.6471 17.759 15.5078 17.5303C15.3691 17.3028 15.283 17.0459 15.2542 16.7658C15.2255 16.4857 15.2564 16.218 15.3453 15.9671C15.4341 15.7173 15.5799 15.4887 15.7793 15.2887Z" fill="#867874"/>
<path d="M32.1133 11.5045L32.1068 11.4991C31.7378 11.1301 31.2507 10.9459 30.763 10.9459C30.3084 10.9459 29.8544 11.1052 29.4957 11.427C29.6333 11.5782 29.7758 11.7337 29.9226 11.8903C30.1876 12.1732 30.4818 12.4771 30.8048 12.8001C31.1282 13.1235 31.4317 13.4172 31.7151 13.6822C31.8722 13.8296 32.0272 13.9721 32.1789 14.1097C32.4997 13.7515 32.6606 13.2969 32.6606 12.8418C32.6606 12.3579 32.478 11.8735 32.1133 11.5045ZM30.763 9.61401C31.5417 9.61401 32.3203 9.89144 32.9337 10.4479L32.9418 10.4506L33.0485 10.5574C33.6776 11.1854 33.9919 12.0149 33.9919 12.8418C33.9919 13.6697 33.6776 14.4982 33.0485 15.1278L32.2423 15.9336L31.7725 15.5245C31.4409 15.2346 31.119 14.9447 30.8102 14.6564C30.4721 14.34 30.1562 14.0349 29.8636 13.7423C29.5704 13.4492 29.2659 13.1333 28.95 12.7963C28.6612 12.4869 28.3713 12.165 28.0814 11.8334L27.6718 11.3631L28.4781 10.5574C29.1072 9.92774 29.9356 9.61401 30.763 9.61401ZM19.8595 21.0594L2.88508 38.0333C2.51608 38.4023 2.33186 38.8894 2.33186 39.376C2.33186 39.8631 2.51554 40.3486 2.88183 40.7176L2.88508 40.7203C3.2557 41.0904 3.74282 41.2768 4.22886 41.2768V41.2735C4.71652 41.2735 5.20364 41.0893 5.57264 40.7203L22.547 23.7459C22.4089 23.5936 22.2658 23.4381 22.1184 23.2799C21.8535 22.9971 21.5592 22.6931 21.2358 22.3701C20.9123 22.0467 20.6089 21.753 20.3255 21.488C20.1678 21.3396 20.0123 21.1965 19.8595 21.0594ZM7.24369 31.7912L19.7983 19.2367L20.268 19.6468C20.6002 19.9356 20.9215 20.2255 21.2303 20.5154C21.5685 20.8302 21.8844 21.1353 22.1775 21.4279C22.4701 21.721 22.7752 22.0369 23.091 22.3756C23.3799 22.6833 23.6697 23.0052 23.9591 23.3384L24.3687 23.8071L6.51382 41.662C5.88474 42.2906 5.0568 42.6054 4.22886 42.6054V42.6027C3.43234 42.6027 2.63637 42.3128 2.01867 41.7341L2.01379 41.7314L1.9439 41.662C1.31481 41.0324 1 40.2045 1 39.376C1 38.5497 1.31481 37.7201 1.9439 37.0915L7.24369 31.7912Z" fill="#867874"/>
<path d="M37.0338 19.1131L27.5477 28.5981C27.1787 28.9671 26.9945 29.4542 26.9945 29.9424C26.9945 30.429 27.1787 30.9172 27.5477 31.2862C27.9167 31.6552 28.4038 31.84 28.8915 31.84C29.3786 31.84 29.8657 31.6552 30.2347 31.2862L39.7208 21.8001C40.0898 21.4311 40.274 20.944 40.274 20.4558C40.274 19.9687 40.0898 19.4821 39.7208 19.1131L39.7181 19.1088C39.3491 18.7425 38.8636 18.5593 38.3775 18.5593C37.8899 18.5593 37.4028 18.7441 37.0338 19.1131ZM26.606 27.6575L36.092 18.1714C36.7211 17.5412 37.5496 17.228 38.3775 17.228C39.2049 17.228 40.0334 17.5412 40.6625 18.1714L40.8576 18.367V18.3849C41.3566 18.9814 41.6059 19.7194 41.6059 20.4558C41.6059 21.2837 41.2916 22.1122 40.6625 22.7418L31.1764 32.2269C30.5473 32.8565 29.7189 33.1713 28.8915 33.1713C28.0635 33.1713 27.235 32.8565 26.606 32.2269C25.9769 31.5983 25.6626 30.7704 25.6626 29.9424C25.6626 29.114 25.9769 28.286 26.606 27.6575Z" fill="#867874"/>
<path d="M21.8057 3.88508L12.3196 13.3701C11.9506 13.7391 11.7664 14.2262 11.7664 14.7144C11.7664 15.1999 11.9495 15.687 12.3163 16.0544L12.3196 16.0587C12.6886 16.4261 13.1757 16.6109 13.6634 16.6109C14.1505 16.6109 14.6376 16.4261 15.0066 16.0587L24.4932 6.57209C24.8617 6.2031 25.0465 5.71598 25.0465 5.22777C25.0465 4.7412 24.8617 4.25408 24.4932 3.88508C24.1242 3.51608 23.6366 3.33186 23.1495 3.33186C22.6618 3.33186 22.1747 3.51608 21.8057 3.88508ZM11.3779 12.4284L20.864 2.94335C21.493 2.31373 22.3215 2 23.1495 2C23.9769 2 24.8053 2.31373 25.4344 2.94335C26.0635 3.57189 26.3778 4.40092 26.3778 5.22777C26.3778 6.05626 26.0635 6.8842 25.4344 7.51382L15.9483 16.9988C15.3192 17.629 14.4908 17.9438 13.6634 17.9438C12.9259 17.9438 12.1885 17.694 11.5913 17.1944H11.5729L11.3779 16.9988C10.7493 16.3708 10.4345 15.5423 10.4345 14.7144C10.4345 13.8865 10.7493 13.058 11.3779 12.4284Z" fill="#867874"/>
<path d="M33.9122 42.9602H47.3277C48.2169 42.9602 49.0253 43.3238 49.6105 43.909C50.1962 44.4947 50.5593 45.3021 50.5593 46.1923C50.5593 47.0815 50.1962 47.8888 49.6105 48.474C49.0253 49.0608 48.2169 49.4244 47.3277 49.4244H26.9841C26.0944 49.4244 25.2865 49.0608 24.7008 48.474C24.1156 47.8888 23.752 47.0815 23.752 46.1923C23.752 45.3021 24.1156 44.4947 24.7008 43.909C25.2865 43.3238 26.0944 42.9602 26.9841 42.9602H33.9122ZM40.3991 44.2921H26.9841C26.4618 44.2921 25.9871 44.5055 25.6425 44.8512C25.2979 45.1953 25.0839 45.6694 25.0839 46.1923C25.0839 46.7141 25.2979 47.1882 25.6425 47.5339C25.9871 47.878 26.4618 48.0915 26.9841 48.0915H47.3277C47.8495 48.0915 48.3247 47.878 48.6693 47.5339C49.0139 47.1882 49.228 46.7141 49.228 46.1923C49.228 45.6694 49.0139 45.1953 48.6693 44.8512C48.3247 44.5055 47.8495 44.2921 47.3277 44.2921H40.3991Z" fill="#867874"/>
<path d="M30.9397 37.8279H44.3552C45.2444 37.8279 46.0528 38.1915 46.638 38.7767C47.2232 39.3624 47.5868 40.1708 47.5868 41.06C47.5868 41.9492 47.2232 42.7581 46.638 43.3433C46.0528 43.9285 45.2444 44.2921 44.3552 44.2921H29.9568C29.0671 44.2921 28.2592 43.9285 27.6734 43.3433C27.0882 42.7581 26.7247 41.9492 26.7247 41.06C26.7247 40.1708 27.0882 39.3624 27.6734 38.7767C28.2592 38.1915 29.0671 37.8279 29.9568 37.8279H30.9397ZM36.8854 39.1597H29.9568C29.435 39.1597 28.9598 39.3749 28.6152 39.7189C28.2706 40.063 28.0565 40.5387 28.0565 41.06C28.0565 41.5818 28.2706 42.0575 28.6152 42.4016C28.9598 42.7468 29.435 42.9602 29.9568 42.9602H44.3552C44.877 42.9602 45.3517 42.7468 45.6963 42.4016C46.0409 42.0575 46.255 41.5818 46.255 41.06C46.255 40.5387 46.0409 40.063 45.6963 39.7189C45.3517 39.3749 44.877 39.1597 44.3552 39.1597H36.8854Z" fill="#867874"/>
</svg>
