<svg width="52" height="52" viewBox="0 0 52 52" fill="none" xmlns="http://www.w3.org/2000/svg">
<path d="M9.13699 16.2089H43.1947C44.3331 16.2089 45.3675 16.6748 46.1169 17.4237C46.8662 18.1731 47.3317 19.2074 47.3317 20.3464V40.5166C47.3317 41.6556 46.8662 42.6905 46.1169 43.4393C45.3675 44.1881 44.3331 44.6547 43.1947 44.6547H9.13699C7.99857 44.6547 6.96419 44.1881 6.21482 43.4393C5.4649 42.6905 5 41.6556 5 40.5166V20.3464C5 19.2074 5.4649 18.1731 6.21482 17.4237C6.96419 16.6748 7.99857 16.2089 9.13699 16.2089ZM43.1947 17.5402H9.13699C8.36649 17.5402 7.6648 17.8566 7.156 18.3659C6.64721 18.8747 6.33186 19.5753 6.33186 20.3464V40.5166C6.33186 41.2882 6.64721 41.9883 7.156 42.4976C7.6648 43.0064 8.36649 43.3228 9.13699 43.3228H43.1947C43.9652 43.3228 44.6664 43.0064 45.1751 42.4976C45.6839 41.9883 45.9998 41.2882 45.9998 40.5166V20.3464C45.9998 19.5753 45.6839 18.8747 45.1751 18.3659C44.6664 17.8566 43.9652 17.5402 43.1947 17.5402Z" fill="#867874"/>
<path d="M17.5146 8H34.8174C35.486 8 36.0934 8.27309 36.5334 8.71253C36.9734 9.15251 37.2464 9.75991 37.2464 10.4286V17.5403H15.085V10.4286C15.085 9.75991 15.3581 9.15251 15.798 8.71253C16.2386 8.27309 16.846 8 17.5146 8ZM34.8174 9.33131H17.5146C17.2133 9.33131 16.9392 9.45486 16.7398 9.6548C16.5404 9.85311 16.4168 10.1278 16.4168 10.4286V16.209H35.9151V10.4286C35.9151 10.1278 35.791 9.85311 35.5922 9.6548C35.3928 9.45486 35.1181 9.33131 34.8174 9.33131Z" fill="#867874"/>
<path d="M11.9692 25.501V17.6735C11.9692 17.2725 12.1334 16.9078 12.3989 16.6413L12.4016 16.6385C12.6677 16.3736 13.0329 16.2089 13.4328 16.2089H18.0688C18.4719 16.2089 18.8382 16.3736 19.1032 16.6385C19.3681 16.9035 19.5329 17.2698 19.5329 17.6735V25.501C19.5329 25.9019 19.3681 26.2666 19.1032 26.5316L19.1005 26.5343C18.8355 26.7992 18.4703 26.9645 18.0688 26.9645H13.4328C13.0296 26.9645 12.6633 26.7992 12.3989 26.5343C12.1334 26.2693 11.9692 25.9036 11.9692 25.501ZM13.3011 17.6735V25.501C13.3011 25.5357 13.3163 25.5692 13.3401 25.5925C13.3645 25.6175 13.3975 25.6326 13.4328 25.6326H18.0688C18.1056 25.6326 18.1387 25.6175 18.1631 25.5942C18.1864 25.5703 18.201 25.5373 18.201 25.501V17.6735C18.201 17.6377 18.1858 17.6041 18.1614 17.5808C18.1376 17.5553 18.1046 17.5402 18.0688 17.5402H13.4328C13.3959 17.5402 13.3629 17.5553 13.3401 17.5776L13.3379 17.5808C13.3152 17.603 13.3011 17.6361 13.3011 17.6735Z" fill="#867874"/>
<path d="M32.799 25.501V17.6735C32.799 17.2725 32.9637 16.9078 33.2286 16.6413L33.2313 16.6385C33.4974 16.3736 33.8626 16.2089 34.263 16.2089H38.8985C39.3016 16.2089 39.6679 16.3736 39.9329 16.6385C40.1979 16.9035 40.3626 17.2698 40.3626 17.6735V25.501C40.3626 25.9019 40.1979 26.2666 39.9329 26.5316L39.9302 26.5343C39.6652 26.7992 39.3 26.9645 38.8985 26.9645H34.263C33.8593 26.9645 33.4936 26.7992 33.2286 26.5343C32.9637 26.2693 32.799 25.9036 32.799 25.501ZM34.1308 17.6735V25.501C34.1308 25.5357 34.146 25.5692 34.1704 25.5925C34.1942 25.6175 34.2273 25.6326 34.263 25.6326H38.8985C38.9354 25.6326 38.9684 25.6175 38.9928 25.5942C39.0161 25.5703 39.0307 25.5373 39.0307 25.501V17.6735C39.0307 17.6377 39.0155 17.6041 38.9912 17.5808C38.9673 17.5553 38.9343 17.5402 38.8985 17.5402H34.263C34.2256 17.5402 34.1926 17.5553 34.1704 17.5776L34.1677 17.5808C34.1449 17.603 34.1308 17.6361 34.1308 17.6735Z" fill="#867874"/>
<path d="M30.1926 33.5783L45.9998 23.6603V20.3464C45.9998 19.5753 45.6839 18.8747 45.1751 18.3659C44.6664 17.8566 43.9652 17.5402 43.1947 17.5402H9.13699C8.36649 17.5402 7.6648 17.8566 7.156 18.3659C6.64721 18.8747 6.33186 19.5753 6.33186 20.3464V23.6603L22.1391 33.5783C22.1987 33.4645 22.2746 33.3621 22.364 33.2732C22.5921 33.044 22.9069 32.9026 23.2542 32.9026H29.0775C29.4226 32.9026 29.7369 33.044 29.965 33.2732H29.9672C30.0566 33.3621 30.133 33.4645 30.1926 33.5783ZM47.0163 24.5912L29.0054 35.8909V34.2344H23.3263V35.8909L5.31535 24.5912L5.3159 24.5896L5 24.3956V20.3464C5 19.2074 5.4649 18.1731 6.21482 17.4237C6.96419 16.6748 7.99857 16.2089 9.13699 16.2089H43.1947C44.3331 16.2089 45.3675 16.6748 46.1169 17.4237C46.8662 18.1731 47.3317 19.2074 47.3317 20.3464V24.3913L47.0163 24.5912Z" fill="#867874"/>
<path d="M9.13699 16.2089H43.1947C44.3331 16.2089 45.3675 16.6748 46.1169 17.4237C46.8662 18.1731 47.3317 19.2074 47.3317 20.3464V40.5166C47.3317 41.6556 46.8662 42.6905 46.1169 43.4393C45.3675 44.1881 44.3331 44.6547 43.1947 44.6547H9.13699C7.99857 44.6547 6.96419 44.1881 6.21482 43.4393C5.4649 42.6905 5 41.6556 5 40.5166V20.3464C5 19.2074 5.4649 18.1731 6.21482 17.4237C6.96419 16.6748 7.99857 16.2089 9.13699 16.2089ZM43.1947 17.5402H9.13699C8.36649 17.5402 7.6648 17.8566 7.156 18.3659C6.64721 18.8747 6.33186 19.5753 6.33186 20.3464V40.5166C6.33186 41.2882 6.64721 41.9883 7.156 42.4976C7.6648 43.0064 8.36649 43.3228 9.13699 43.3228H43.1947C43.9652 43.3228 44.6664 43.0064 45.1751 42.4976C45.6839 41.9883 45.9998 41.2882 45.9998 40.5166V20.3464C45.9998 19.5753 45.6839 18.8747 45.1751 18.3659C44.6664 17.8566 43.9652 17.5402 43.1947 17.5402Z" fill="#867874"/>
<path d="M23.2543 32.9026H29.0775C29.4243 32.9026 29.7397 33.044 29.9672 33.2732C30.1953 33.5008 30.3368 33.8156 30.3368 34.1624V37.6123C30.3368 37.9591 30.1953 38.2739 29.9672 38.5009C29.7397 38.7301 29.4243 38.8716 29.0775 38.8716H23.2543C22.907 38.8716 22.5922 38.7301 22.3641 38.5009C22.1365 38.2739 21.9951 37.9591 21.9951 37.6123V34.1624C21.9951 33.8156 22.1365 33.5008 22.3641 33.2732C22.5922 33.044 22.907 32.9026 23.2543 32.9026ZM29.0055 34.2344H23.3264V37.5397H29.0055V34.2344Z" fill="#867874"/>
</svg>
