<svg width="52" height="52" viewBox="0 0 52 52" fill="none" xmlns="http://www.w3.org/2000/svg">
<path d="M26.3928 0.27309L44.5706 14.8184C44.776 14.982 44.9147 15.1944 44.9814 15.4291C45.048 15.6631 45.0399 15.9183 44.9483 16.1643C44.8578 16.4038 44.6985 16.6027 44.4948 16.7398C44.2932 16.8769 44.0548 16.9533 43.8023 16.9533H7.44609C7.19359 16.9533 6.95463 16.8769 6.75361 16.7398C6.54987 16.6027 6.39003 16.4038 6.30171 16.1643C6.21014 15.9183 6.20147 15.6631 6.26811 15.4291C6.33313 15.1944 6.47347 14.982 6.67721 14.8184L24.8556 0.27309C25.0832 0.0899463 25.3552 0 25.6239 0C25.8932 0 26.1652 0.0899463 26.3928 0.27309ZM35.0721 8.91499L25.6239 1.35516L7.79395 15.622H43.4544L35.0721 8.91499Z" fill="#867874"/>
<path d="M14.6559 15.6219H46.0174C46.9065 15.6219 47.7155 15.985 48.3007 16.5707C48.8864 17.1559 49.2495 17.9643 49.2495 18.8535C49.2495 19.7427 48.8864 20.5517 48.3007 21.1369C47.7155 21.722 46.9065 22.0856 46.0174 22.0856H5.23048C4.34132 22.0856 3.53396 21.722 2.94877 21.1369C2.36195 20.5517 2 19.7427 2 18.8535C2 17.9643 2.36358 17.1559 2.94877 16.5707C3.53396 15.985 4.34132 15.6219 5.23048 15.6219H14.6559ZM18.6471 16.9533H5.23048C4.70923 16.9533 4.23457 17.1668 3.88942 17.5124C3.54534 17.8565 3.33186 18.3323 3.33186 18.8535C3.33186 19.3753 3.54534 19.8494 3.88942 20.1951C4.23457 20.5392 4.70923 20.7543 5.23048 20.7543H46.0174C46.5392 20.7543 47.0138 20.5392 47.359 20.1951C47.7031 19.8494 47.9182 19.3753 47.9182 18.8535C47.9182 18.3323 47.7031 17.8565 47.359 17.5124C47.0138 17.1668 46.5392 16.9533 46.0174 16.9533H18.6471Z" fill="#867874"/>
<path d="M14.6559 45.2719H46.0174C46.9065 45.2719 47.7155 45.6349 48.3007 46.2206C48.8864 46.8058 49.2495 47.6132 49.2495 48.5023C49.2495 49.3926 48.8864 50.1999 48.3007 50.7857C47.7155 51.3709 46.9065 51.7344 46.0174 51.7344H5.23048C4.34132 51.7344 3.53396 51.3709 2.94877 50.7857C2.36195 50.1999 2 49.3926 2 48.5023C2 47.6132 2.36358 46.8058 2.94877 46.2206C3.53396 45.6349 4.34132 45.2719 5.23048 45.2719H14.6559ZM18.6471 46.6032H5.23048C4.70923 46.6032 4.23457 46.8167 3.88942 47.1607C3.54534 47.5064 3.33186 47.9805 3.33186 48.5023C3.33186 49.0252 3.54534 49.4993 3.88942 49.845C4.23457 50.1891 4.70923 50.4026 5.23048 50.4026H46.0174C46.5392 50.4026 47.0138 50.1891 47.359 49.845C47.7031 49.4993 47.9182 49.0252 47.9182 48.5023C47.9182 47.9805 47.7031 47.5064 47.359 47.1607C47.0138 46.8167 46.5392 46.6032 46.0174 46.6032H18.6471Z" fill="#867874"/>
<path d="M9.32522 40.1394H42.9061C43.7969 40.1394 44.6042 40.5024 45.1894 41.0882C45.7746 41.6734 46.1382 42.4818 46.1382 43.371C46.1382 44.2601 45.7746 45.0691 45.1894 45.6543C44.6042 46.2395 43.7969 46.6031 42.9061 46.6031H8.34177C7.4526 46.6031 6.64416 46.2395 6.05897 45.6543C5.47324 45.0691 5.1102 44.2601 5.1102 43.371C5.1102 42.4818 5.47324 41.6734 6.05897 41.0882C6.64416 40.5024 7.4526 40.1394 8.34177 40.1394H9.32522ZM15.208 41.4707H8.34177C7.82051 41.4707 7.34477 41.6842 7.0007 42.0299C6.655 42.374 6.44151 42.8497 6.44151 43.371C6.44151 43.8928 6.655 44.3669 7.0007 44.7126C7.34477 45.0567 7.82051 45.2718 8.34177 45.2718H42.9061C43.4295 45.2718 43.9036 45.0567 44.2477 44.7126C44.5929 44.3669 44.8069 43.8928 44.8069 43.371C44.8069 42.8497 44.5929 42.374 44.2477 42.0299C43.9036 41.6842 43.4295 41.4707 42.9061 41.4707H15.208Z" fill="#867874"/>
<path d="M9.40591 40.8048V20.7544H15.8696V41.4708H9.40591V40.8048ZM10.7372 37.1859V40.1395H14.5383V22.0857H10.7372V37.1859Z" fill="#867874"/>
<path d="M35.3799 40.8048V20.7544H41.8424V41.4708H35.3799V40.8048ZM36.7112 37.1859V40.1395H40.5106V22.0857H36.7112V37.1859Z" fill="#867874"/>
<path d="M22.3923 40.8048V20.7544H28.856V41.4708H22.3923V40.8048ZM23.7236 37.1859V40.1395H27.5247V22.0857H23.7236V37.1859Z" fill="#867874"/>
</svg>
