<svg width="52" height="52" viewBox="0 0 52 52" fill="none" xmlns="http://www.w3.org/2000/svg">
<path d="M23.1752 38.3047V5.31499C23.1752 4.42583 23.5387 3.61739 24.1239 3.03166C24.7097 2.44646 25.5176 2.08289 26.4073 2.08289C27.2964 2.08289 28.1049 2.44646 28.6901 3.03166C29.2753 3.61739 29.6388 4.42583 29.6388 5.31499V38.9707H23.1752V38.3047ZM24.507 33.0868V37.6393H28.307V5.31499C28.307 4.7932 28.093 4.31746 27.7483 3.97339C27.4037 3.62823 26.9291 3.41474 26.4073 3.41474C25.8855 3.41474 25.4103 3.62823 25.0657 3.97339C24.7211 4.31746 24.507 4.7932 24.507 5.31499V33.0868Z" fill="#867874"/>
<path d="M23.1637 42.7701H36.5788C37.4679 42.7701 38.2764 43.1337 38.8621 43.7189C39.4473 44.3041 39.8109 45.1131 39.8109 46.0023C39.8109 46.8925 39.4473 47.6999 38.8621 48.2856C38.2764 48.8708 37.4679 49.2344 36.5788 49.2344H16.2352C15.3455 49.2344 14.5376 48.8708 13.9524 48.2856C13.3666 47.6999 13.0031 46.8925 13.0031 46.0023C13.0031 45.1131 13.3666 44.3041 13.9524 43.7189C14.5376 43.1337 15.3455 42.7701 16.2352 42.7701H23.1637ZM29.6502 44.102H16.2352C15.7134 44.102 15.2382 44.3171 14.8936 44.6606C14.5489 45.0063 14.3349 45.4805 14.3349 46.0023C14.3349 46.5251 14.5489 46.9998 14.8936 47.3433C15.2382 47.689 15.7134 47.9025 16.2352 47.9025H36.5788C37.1 47.9025 37.5763 47.689 37.9198 47.3433C38.2655 46.9998 38.479 46.5251 38.479 46.0023C38.479 45.4805 38.2655 45.0063 37.9198 44.6606C37.5763 44.3171 37.1 44.102 36.5788 44.102H29.6502Z" fill="#867874"/>
<path d="M20.1911 37.6394H33.6061C34.4953 37.6394 35.3037 38.0024 35.8894 38.5882C36.4746 39.1734 36.8382 39.9807 36.8382 40.871C36.8382 41.7601 36.4746 42.5675 35.8894 43.1543C35.3037 43.74 34.4953 44.102 33.6061 44.102H19.2076C18.3185 44.102 17.51 43.74 16.9248 43.1543C16.3391 42.5675 15.9761 41.7601 15.9761 40.871C15.9761 39.9807 16.3391 39.1734 16.9248 38.5882C17.51 38.0024 18.3185 37.6394 19.2076 37.6394H20.1911ZM26.1362 38.9707H19.2076C18.6858 38.9707 18.2112 39.1847 17.866 39.5299C17.522 39.874 17.3079 40.3481 17.3079 40.871C17.3079 41.3928 17.522 41.8674 17.866 42.2126C18.2112 42.5567 18.6858 42.7701 19.2076 42.7701H33.6061C34.1274 42.7701 34.6031 42.5567 34.9472 42.2126C35.2929 41.8674 35.5064 41.3928 35.5064 40.871C35.5064 40.3481 35.2929 39.874 34.9472 39.5299C34.6031 39.1847 34.1274 38.9707 33.6061 38.9707H26.1362Z" fill="#867874"/>
<path d="M10.8085 8.37373L15.6082 23.9578H3.35167L8.07277 8.63002H6.64338C5.73091 8.63002 4.90189 8.25723 4.30152 7.65633C3.70116 7.05596 3.32837 6.22748 3.32837 5.31501C3.32837 4.40254 3.70116 3.57298 4.30152 2.9737C4.90189 2.37279 5.73091 2 6.64338 2H46.1705C47.0835 2 47.9131 2.37279 48.5123 2.9737C49.1127 3.57298 49.486 4.40254 49.486 5.31501C49.486 6.22748 49.1127 7.05596 48.5123 7.65633C47.9131 8.25723 47.0835 8.63002 46.1705 8.63002H44.7416L49.4622 23.9578H37.2056L42.0053 8.37373C42.4989 6.77312 44.9026 7.13236 46.1705 7.13236C46.6701 7.13236 47.1236 6.927 47.4536 6.5981C47.7825 6.26812 47.9878 5.81459 47.9878 5.31501C47.9878 4.81543 47.7825 4.36191 47.4536 4.03192C47.1236 3.70302 46.6701 3.49766 46.1705 3.49766H6.64338C6.14434 3.49766 5.69027 3.70302 5.36083 4.03192C5.03085 4.36191 4.82603 4.81543 4.82603 5.31501C4.82603 5.81459 5.03085 6.26812 5.36083 6.5981C5.69027 6.927 6.14434 7.13236 6.64338 7.13236H8.85519C9.74924 7.13236 10.5365 7.49161 10.8085 8.37373ZM45.484 16.1167L43.3339 9.13502L39.2294 22.4601H47.4373L45.484 16.1167ZM11.63 16.1167L9.47994 9.13502L5.37655 22.4601H13.5839L11.63 16.1167Z" fill="#867874"/>
<path d="M2.3319 24.1815C2.57085 25.9555 3.45406 27.5242 4.73878 28.6452C6.00453 29.7506 7.66312 30.4203 9.47993 30.4203C11.2973 30.4203 12.9559 29.7506 14.2216 28.6452C15.5058 27.5242 16.3895 25.9555 16.6285 24.1815C16.6339 24.1398 16.6317 24.0997 16.6209 24.065C16.6106 24.0303 16.5917 23.9967 16.564 23.9664C16.5358 23.9328 16.5055 23.9095 16.4735 23.8954C16.4426 23.8819 16.4036 23.8748 16.3581 23.8748H2.60228C2.55622 23.8748 2.51775 23.8819 2.48687 23.8954C2.4549 23.9095 2.42455 23.9328 2.39638 23.9664C2.36874 23.9967 2.34978 24.0303 2.33949 24.065C2.32865 24.0997 2.32594 24.1398 2.3319 24.1815ZM3.86478 29.6439C2.34436 28.3163 1.2986 26.4589 1.01576 24.3587C0.983788 24.1246 1.00058 23.8981 1.06506 23.6846C1.12954 23.4695 1.24116 23.2712 1.39776 23.0924C1.55381 22.9136 1.73641 22.776 1.94069 22.6833C2.14605 22.5901 2.3682 22.543 2.60228 22.543H16.3581C16.5922 22.543 16.8138 22.5901 17.0197 22.6833C17.224 22.776 17.4066 22.9136 17.5626 23.0924C17.7192 23.2712 17.8309 23.4695 17.8953 23.6846C17.9593 23.897 17.9761 24.123 17.9446 24.3587C17.6618 26.4589 16.6155 28.3163 15.0956 29.6439C13.592 30.9562 11.6278 31.7522 9.47993 31.7522C7.33259 31.7522 5.36786 30.9562 3.86478 29.6439Z" fill="#867874"/>
<path d="M36.1859 24.1815C36.4249 25.9555 37.3081 27.5242 38.5928 28.6452C39.858 29.7506 41.5166 30.4203 43.334 30.4203C45.1513 30.4203 46.8099 29.7506 48.0751 28.6452C49.3598 27.5242 50.243 25.9555 50.482 24.1815C50.4874 24.1398 50.4858 24.0997 50.4749 24.065C50.4636 24.0303 50.4457 23.9967 50.418 23.9664C50.3904 23.9328 50.3595 23.9095 50.3281 23.8954C50.2961 23.8819 50.2571 23.8748 50.2116 23.8748H36.4568C36.4108 23.8748 36.3718 23.8819 36.3403 23.8954C36.3084 23.9095 36.2775 23.9328 36.2499 23.9664C36.2222 23.9967 36.2043 24.0303 36.193 24.065C36.1821 24.0997 36.1805 24.1398 36.1859 24.1815ZM37.7188 29.6439C36.1984 28.3163 35.1526 26.4589 34.8698 24.3587C34.8378 24.1246 34.8546 23.8981 34.9185 23.6846C34.9836 23.4695 35.0946 23.2712 35.2512 23.0924C35.4078 22.9136 35.5899 22.776 35.7947 22.6833C36.0001 22.5901 36.2222 22.543 36.4568 22.543H50.2116C50.4457 22.543 50.6678 22.5901 50.8732 22.6833C51.0786 22.776 51.2601 22.9136 51.4167 23.0924C51.5733 23.2712 51.6843 23.4695 51.7499 23.6846C51.8133 23.897 51.8301 24.123 51.7981 24.3587C51.5153 26.4589 50.4695 28.3163 48.9491 29.6439C47.4455 30.9562 45.4813 31.7522 43.334 31.7522C41.1866 31.7522 39.2224 30.9562 37.7188 29.6439Z" fill="#867874"/>
</svg>
